<svg xmlns="http://www.w3.org/2000/svg" width="116" height="115" fill="none" viewBox="0 0 116 115">
  <path fill="#fff" d="M52.892 115c-2.878-.42-5.756-.779-8.604-1.469a57.676 57.676 0 0 1-21.165-9.923c-1.89-1.409-2.309-3.928-.96-5.906 1.23-1.799 3.868-2.309 5.786-.93 3.628 2.579 7.405 4.977 11.632 6.476 19.397 6.865 36.905 3.628 52.105-10.373 8.124-7.465 12.921-16.938 14.48-27.82 2.218-15.71-1.979-29.56-12.831-41.223-7.645-8.214-17.089-13.19-28.151-14.81-14.54-2.128-27.671 1.38-39.004 10.763-9.533 7.885-15.289 18.048-17.148 30.25-1.888 12.411.63 23.923 7.465 34.506.6.9 1.26 1.769 1.38 2.908.21 2.008-.84 3.747-2.699 4.437-1.889.69-3.807.06-5.007-1.679-5.126-7.465-8.394-15.68-9.593-24.643-1.619-11.932.12-23.384 5.756-34.057C15.118 14.898 28.73 4.436 47.226 1.048c18.557-3.388 35.076 1.469 49.136 14.12 10.703 9.624 16.669 21.795 18.468 36.036.06.54-.03 1.139.21 1.648v9.414c-.33 2.129-.57 4.287-.99 6.416-2.548 12.561-8.574 23.144-18.107 31.718-7.465 6.715-16.1 11.152-25.903 13.341-2.548.569-5.156.839-7.734 1.259h-9.414Z"/>
  <path fill="#fff" d="M53.162 75.787c.27-.66.18-1.14.18-1.619v-43.98c0-.84.03-1.649.21-2.458.42-1.829 2.188-3.208 4.107-3.178 1.859.03 3.598 1.379 3.987 3.178.18.81.21 1.619.21 2.458v43.98c0 .48-.09.96.12 1.44.48 0 .69-.42.96-.69 4.077-4.078 8.154-8.125 12.231-12.202 1.23-1.23 2.668-1.44 4.257-1.02 1.589.45 2.488 1.62 2.818 3.178.33 1.62-.33 2.908-1.469 4.018-5.516 5.486-11.002 11.002-16.519 16.488-1.199 1.2-2.368 2.399-3.567 3.568-1.919 1.859-4.287 1.889-6.176 0L34.365 68.802c-1.919-1.919-1.979-4.407-.21-6.176 1.649-1.649 4.287-1.529 6.116.3 3.987 3.957 7.944 7.944 11.902 11.902.3.33.6.6.99.959Z"/>
</svg>
