<svg xmlns="http://www.w3.org/2000/svg" width="132" height="133" fill="none" viewBox="0 0 132 133">
  <g clip-path="url(#a)">
    <path fill="#fff" d="M105.405 30.136c3.915-.021 7.496.501 10.939 1.77 7.154 2.65 11.89 7.583 14.04 14.94 1.017 3.476 1.293 7.038 1.089 10.63-.174 3.127-.755 6.189-1.99 9.099-1.707 4.04-4.402 7.24-8.142 9.563-3.29 2.038-6.893 3.141-10.699 3.67-2.041.284-4.097.37-6.159.291-4.482-.16-8.789-1.045-12.798-3.134-4.896-2.554-8.28-6.436-10.147-11.631-.879-2.453-1.344-4.985-1.525-7.582-.262-3.65-.008-7.249.893-10.79 1.017-3.998 2.89-7.531 5.905-10.39 2.6-2.46 5.68-4.085 9.094-5.1 3.188-.958 6.442-1.35 9.5-1.336Zm8.346 24.757c.051-1.56-.058-3.316-.305-5.065-.218-1.589-.581-3.134-1.344-4.564-.799-1.509-2.019-2.437-3.704-2.735-1.511-.268-3.036-.189-4.554-.072a7.83 7.83 0 0 0-1.424.254c-1.409.377-2.455 1.204-3.08 2.539-.37.79-.61 1.625-.799 2.481-.435 2.017-.472 4.078-.559 6.124-.087 2.177.036 4.346.276 6.509.167 1.465.45 2.916 1.06 4.273.756 1.683 2.005 2.765 3.843 3.091 1.678.305 3.377.261 5.062.08 2.157-.232 3.567-1.48 4.329-3.483.262-.682.472-1.371.618-2.082.457-2.366.602-4.745.581-7.35ZM33.586 70.18v-8.053c.021-.719.08-.791.799-.791 2.396-.007 4.793 0 7.19 0 .341 0 .676.022 1.017 0 .436-.03.72.16.959.508 2.803 4.063 6.798 6.138 11.6 6.777 2.193.297 4.394.283 6.55-.32.684-.188 1.323-.471 1.875-.921.603-.486.595-.87-.008-1.342-.755-.588-1.648-.915-2.534-1.234-2.528-.907-5.121-1.618-7.692-2.394-3.08-.929-6.196-1.763-9.21-2.902-2.731-1.03-5.157-2.555-7.169-4.688-2.39-2.532-3.66-5.529-3.712-9.033-.036-2.561.422-5.006 1.591-7.292 1.496-2.924 3.835-4.941 6.791-6.283 2.317-1.053 4.765-1.568 7.3-1.785 4.939-.428 9.704.297 14.28 2.184 1.03.428 2.019.928 2.992 1.48.516.297.625.24.64-.348.014-.487-.008-.965.007-1.452.021-.594.101-.689.675-.689 2.978-.007 5.956-.007 8.934 0 .639 0 .712.087.712.798.007 2.177 0 4.354 0 6.53v8.127c0 .196.007.384-.008.58-.036.457-.116.544-.58.559-.676.022-1.359.007-2.034.007-2.034 0-4.068-.014-6.102.007-.58.008-.987-.16-1.343-.653-1.06-1.48-2.499-2.554-4.039-3.49-3.522-2.133-7.372-2.982-11.461-2.837-.952.037-1.874.225-2.731.668-.262.13-.509.283-.705.508-.421.486-.436 1.008-.036 1.516.421.53 1.002.835 1.605 1.096 1.206.522 2.47.849 3.726 1.212 3.784 1.11 7.59 2.162 11.367 3.301 3.32 1.001 6.4 2.489 9.036 4.803 3.123 2.743 4.859 6.138 4.91 10.347.029 2.358-.37 4.622-1.424 6.748-1.293 2.604-3.312 4.498-5.825 5.891-2.775 1.539-5.774 2.33-8.912 2.67-3.66.4-7.249.073-10.757-1.044a32.5 32.5 0 0 1-6.748-3.019c-.065-.036-.123-.072-.189-.109-.537-.304-.573-.283-.58.363-.008.726.007 1.451-.008 2.177-.007.638-.087.725-.712.733-3.101.007-6.195.007-9.297 0-.668 0-.762-.11-.77-.842.022-2.7.03-5.384.03-8.068ZM15.29 30.753h14.083c1.176 0 1.176.008 1.184 1.161v9.578c0 1.052-.008 1.052-1.046 1.052h-4.867c-.196 0-.385.007-.58.007-.335 0-.48.182-.48.5 0 .168-.007.342-.007.509v22.848c.007.863.029.892.9.9 1.62.007 3.247 0 4.867 0 .196 0 .385-.008.58.007.51.036.59.109.625.602.008.145.008.29.008.435v10.013c-.022.66-.087.726-.777.74-.487.008-.966 0-1.453 0H1.169c-1.162 0-1.162 0-1.162-1.153v-9.505c0-.145-.007-.29 0-.436.022-.594.095-.674.668-.696.414-.015.821-.007 1.235-.007h4.14c.915 0 .923-.015.93-.944V44.387c0-.363.007-.726 0-1.089-.015-.696-.05-.747-.74-.754-1.308-.007-2.616 0-3.923 0-.53 0-1.068.007-1.598-.007-.625-.015-.704-.087-.712-.726C-.007 40.483 0 39.148 0 37.821v-6.168c0-.856.044-.9.908-.9h14.381ZM63.786.562c8.295.08 15.972 1.713 23.257 5.123a54.665 54.665 0 0 1 13.496 8.953 54.367 54.367 0 0 1 8.73 10.057c.16.232.472.479.356.754-.145.334-.559.167-.857.21-.705.095-1.148-.203-1.562-.79-2.542-3.65-5.483-6.937-8.897-9.803-.552-.464-1.126-.921-1.67-1.393-.277-.24-.502-.283-.829-.043a43.739 43.739 0 0 1-5.23 3.265c-.065.036-.123.072-.188.109-.378.253-.392.297-.073.66 1.925 2.176 3.704 4.462 5.448 6.784.189.254.377.5.544.769.138.218.059.385-.196.406a6.843 6.843 0 0 1-1.445-.007c-.32-.043-.487-.29-.661-.53a102.6 102.6 0 0 0-3.82-4.84 61.005 61.005 0 0 0-1.424-1.646c-.494-.552-.509-.552-1.17-.247a52.847 52.847 0 0 1-5.68 2.206c-.784.254-1.576.464-2.367.704-.48.145-.509.21-.305.667.348.82.712 1.64 1.067 2.46.087.196.175.399.24.61.153.493.08.594-.45.638-.19.014-.385-.007-.581.007-.443.03-.705-.16-.88-.588a48.167 48.167 0 0 0-1.132-2.59c-.269-.588-.32-.602-.952-.471-2.157.45-4.336.783-6.522 1.015-.959.102-1.932.138-2.898.196-.676.044-1.351.073-2.027.123-.465.037-.53.11-.559.581-.022.363 0 .726-.015 1.088-.021.537-.101.61-.653.646a1.93 1.93 0 0 1-.29 0c-.734-.014-.822-.101-.836-.849-.007-.218 0-.435 0-.653-.015-.74-.065-.813-.828-.885-.937-.087-1.881-.08-2.825-.16-2.804-.225-5.571-.674-8.317-1.27a1.613 1.613 0 0 1-.21-.05c-.393-.138-.633 0-.792.384-.392.936-.814 1.865-1.22 2.794-.117.261-.182.588-.524.638-.45.073-.915.116-1.358-.036-.218-.08-.145-.283-.087-.443.16-.428.327-.856.508-1.277.306-.71.625-1.414.923-2.126.189-.45.153-.522-.312-.681-.298-.102-.603-.175-.901-.269a53.325 53.325 0 0 1-6.9-2.663c-.705-.334-.727-.34-1.242.225-1.315 1.422-2.52 2.931-3.719 4.455-.552.704-1.118 1.4-1.627 2.133-.385.559-.857.827-1.525.74-.327-.043-.777.153-.944-.174-.168-.326.24-.588.435-.841 1.83-2.496 3.763-4.92 5.811-7.242.385-.435.392-.486-.08-.747a58.098 58.098 0 0 1-4.721-2.99c-.443-.304-.465-.29-.944.095-3.952 3.163-7.453 6.762-10.314 10.942-.603.878-1.286 1.052-2.201.957-.45-.043-.53-.167-.298-.544.24-.392.516-.762.777-1.139 2.375-3.468 5.18-6.574 8.295-9.389a53.821 53.821 0 0 1 14.04-9.178 54.783 54.783 0 0 1 11.738-3.759c2.687-.537 5.389-.885 8.135-.98.842-.028 1.684-.115 2.258-.1ZM62.77 15.436c0-1.741.008-3.475 0-5.216 0-.712-.036-.726-.711-.799-1.032-.108-2.078-.196-3.08-.457-.574-.145-.9.022-1.213.48-.763 1.087-1.576 2.14-2.339 3.228-1.503 2.162-2.97 4.353-4.205 6.682-.327.617-.305.675.363.82 3.406.733 6.85 1.234 10.343 1.292.792.014.843-.051.85-.878 0-1.72 0-3.44-.008-5.152Zm1.787-.043v5.224c0 .813.044.849.872.849h.508c3.08-.044 6.123-.428 9.152-.987.283-.05.574-.109.85-.181.392-.11.414-.182.247-.566-.03-.066-.066-.13-.102-.196-1.917-3.541-4.22-6.828-6.617-10.05-.29-.384-.58-.485-1.046-.391a18.534 18.534 0 0 1-3.094.348c-.733.015-.762.05-.77.806v5.144Zm14.055 4.28c.196-.05.508-.123.806-.21 2.259-.646 4.474-1.4 6.631-2.343.966-.421.995-.486.218-1.248a49.4 49.4 0 0 0-4.329-3.744c-2.142-1.662-4.365-3.2-6.638-4.68-.284-.189-.545-.377-.93-.203-.944.435-1.91.82-2.905 1.132-.327.101-.364.283-.175.536l.262.349c1.656 2.293 3.297 4.593 4.75 7.023.574.95 1.09 1.938 1.634 2.902.124.247.233.501.676.487ZM51.838 3.814c.138.406.407.5.618.638 3.057 2.06 6.493 2.953 10.117 3.178a23.592 23.592 0 0 0 6.915-.573c2.23-.53 4.336-1.364 6.232-2.663.203-.138.472-.24.545-.602-8.142-1.865-16.248-1.88-24.427.022Zm4.38 4.672c.007-.232-.13-.29-.269-.333a19.358 19.358 0 0 1-2.73-1.176.576.576 0 0 0-.618.03c-.182.115-.378.224-.56.34-2.92 1.901-5.76 3.918-8.454 6.131a29.588 29.588 0 0 0-2.716 2.51c-.32.335-.298.443.094.647.327.166.661.297.995.442 2.085.922 4.227 1.669 6.42 2.3.705.203.705.189 1.061-.471.436-.806.865-1.619 1.337-2.41 1.561-2.59 3.283-5.071 5.084-7.502.138-.181.254-.363.356-.508Zm38.365 3.752c-.08-.233-.305-.305-.48-.428-2.505-1.793-5.193-3.273-7.982-4.579a49.653 49.653 0 0 0-6.915-2.626c-.465-.138-.835-.095-1.184.268-.254.254-.559.464-.85.682-.69.522-.69.544.044 1.038 3.944 2.64 7.78 5.412 11.099 8.837.406.42.486.414 1.01.13a49.163 49.163 0 0 0 4.778-2.887c.182-.123.407-.196.48-.435Zm-45.36-7.72a8.737 8.737 0 0 0-.508.137A52.45 52.45 0 0 0 37.13 9.777a56.524 56.524 0 0 0-3.283 2.14c-.378.261-.363.363 0 .646.058.044.116.08.182.123a49.367 49.367 0 0 0 4.14 2.54c.595.326.639.326 1.118-.167 2.049-2.14 4.35-3.976 6.733-5.725a126.343 126.343 0 0 1 4.714-3.265c.407-.268.407-.319.044-.624-.298-.246-.603-.486-.9-.733a.86.86 0 0 0-.655-.195Zm15.261 104.923c-6.48.044-12.297-.943-17.955-2.873-6.508-2.22-12.384-5.565-17.636-10.006a54.977 54.977 0 0 1-10.045-11.195c-.167-.247-.53-.493-.334-.806.153-.26.538-.094.82-.13.727-.102 1.185.196 1.613.813 2.078 3.018 4.49 5.76 7.17 8.264.95.892 1.968 1.72 2.963 2.561.508.428.544.42 1.06.044a44.215 44.215 0 0 1 4.772-3.04c.066-.037.13-.066.189-.11.341-.232.363-.297.094-.623-.508-.617-1.031-1.22-1.547-1.829a115.969 115.969 0 0 1-4.307-5.47c-.058-.08-.123-.153-.167-.24-.109-.203-.036-.348.182-.356a17.838 17.838 0 0 1 1.525.015c.298.015.443.261.61.472 1.046 1.327 2.085 2.67 3.152 3.983a69.223 69.223 0 0 0 2.121 2.481c.407.457.443.45.995.189a53.577 53.577 0 0 1 7.867-2.975c.617-.181.639-.24.37-.87-.37-.864-.763-1.727-1.119-2.598-.247-.61-.174-.697.502-.718h.072c1.242-.015 1.046.058 1.438.936.29.66.589 1.327.894 1.98.268.58.312.595.944.458a65.487 65.487 0 0 1 5.28-.958c1.947-.276 3.9-.4 5.855-.515.886-.051.9-.037.915-.9 0-.123 0-.24.007-.363.036-.53.116-.61.661-.638.094-.008.196 0 .29 0 .763.007.814.065.829.834.021 1.045.021 1.03 1.03 1.06a60.14 60.14 0 0 1 10.867 1.276c.791.167.799.175 1.133-.58.283-.639.574-1.277.835-1.93.182-.464.465-.668.988-.668 1.184 0 1.235.059.755 1.161-.297.69-.602 1.372-.893 2.06-.203.487-.174.56.341.72.603.188 1.213.34 1.809.529a53.12 53.12 0 0 1 6.166 2.35c.69.313.705.327 1.22-.26a105.973 105.973 0 0 0 4.707-5.805c.204-.261.342-.631.705-.704.545-.109 1.111-.08 1.663-.014.189.022.218.181.13.326-.108.189-.246.363-.37.537-1.656 2.235-3.413 4.39-5.207 6.516-.044.058-.102.109-.146.16-.29.362-.29.413.138.638 1.032.53 2.02 1.139 3.015 1.741.893.537 1.728 1.154 2.585 1.749.465.326.48.34.93-.03.77-.623 1.547-1.24 2.274-1.915 2.927-2.699 5.614-5.601 7.888-8.88.108-.16.232-.313.334-.472.188-.29.443-.428.791-.414.364.015.727 0 1.09.022.247.014.341.167.232.399a3.25 3.25 0 0 1-.254.435c-2.048 3.04-4.358 5.863-6.973 8.431a55.07 55.07 0 0 1-12.188 9.07c-5.796 3.178-11.97 5.21-18.5 6.153-2.534.384-5.09.588-7.175.522ZM62.777 94.11v-2.902c0-.798.007-1.596 0-2.395-.008-.667-.095-.74-.777-.703-.334.014-.676.08-1.01.087-3.123.116-6.21.558-9.268 1.204-.857.181-.864.21-.458.958 1.91 3.49 4.206 6.711 6.56 9.904.312.421.624.508 1.11.392.988-.24 1.998-.363 3.015-.428.813-.051.828-.058.828-.907v-5.21Zm1.78-.007v5.072c0 .914.043.979.973 1.03a22.82 22.82 0 0 1 2.81.305c.538.094.908-.066 1.242-.508a115.73 115.73 0 0 0 4.656-6.734c.661-1.037 1.3-2.097 1.845-3.2.305-.616.305-.645-.392-.79a83.667 83.667 0 0 0-3-.537c-2.411-.392-4.852-.53-7.292-.631-.828-.037-.85.007-.85.849.007 1.712.007 3.424.007 5.144Zm-13.14 11.892c.152.21.305.225.443.254 3.283.762 6.61 1.262 9.973 1.371 1.982.065 3.965.058 5.948-.094a55.337 55.337 0 0 0 8.099-1.197c.189-.044.377-.095.559-.153.182-.065.21-.203.087-.334-.109-.123-.254-.217-.392-.319-1.772-1.32-3.762-2.176-5.876-2.764-3.225-.9-6.5-.994-9.784-.544-2.934.399-5.687 1.364-8.156 3.047-.313.21-.632.428-.901.733Zm23.235-3.541c.276 0 .443-.152.625-.268 3.305-2.163 6.53-4.42 9.493-7.038.668-.595 1.293-1.241 1.918-1.872.276-.276.254-.363-.088-.53-.283-.138-.573-.254-.864-.377a51.966 51.966 0 0 0-6.93-2.366c-.558-.152-.573-.138-.864.363-.05.08-.094.167-.137.254-.894 1.778-1.94 3.454-3.037 5.115a101.748 101.748 0 0 1-3.254 4.629c-.5.682-.493.726.27.973.805.261 1.59.587 2.36.928.181.073.363.131.508.189Zm-34.18-9.236c.26.282.42.457.587.63 1.09 1.104 2.274 2.098 3.487 3.063 2.419 1.937 4.968 3.693 7.554 5.405.544.363 1.01.443 1.598.102.537-.312 1.14-.53 1.728-.748 1.06-.391 1.024-.275.342-1.197-2.31-3.134-4.533-6.327-6.356-9.788-.305-.587-.348-.602-1.031-.42a45.14 45.14 0 0 0-5.687 1.973c-.712.297-1.41.617-2.223.98Zm36.127 10.361c.588.479 1.22.928 1.765 1.458.407.392.784.435 1.307.276 5.339-1.647 10.263-4.121 14.825-7.328.08-.058.16-.11.232-.175.174-.137.167-.275-.007-.413-.116-.087-.225-.181-.349-.261-1.612-1.11-3.268-2.155-5.019-3.048-.653-.334-.653-.334-1.17.189-1.169 1.19-2.36 2.358-3.66 3.41a93.852 93.852 0 0 1-7.372 5.391c-.182.138-.421.225-.552.501Zm-27.768 1.843c.414.065.596-.08.785-.247.283-.261.573-.522.871-.762.712-.573.72-.566-.036-1.066-4.017-2.671-7.953-5.435-11.316-8.918-.262-.268-.487-.305-.821-.123-1.547.856-3.065 1.756-4.503 2.779-.712.5-.705.537.007 1.037a52.709 52.709 0 0 0 14.527 7.155c.21.072.42.123.486.145ZM10.96 123.249c-.181-.036-.254.116-.348.218-.98 1.03-2.223 1.415-3.596 1.487-.53.029-1.067.037-1.59-.051-2.535-.428-4.155-1.922-4.78-4.375-.544-2.147-.225-4.223 1.025-6.109 1.089-1.647 2.68-2.38 4.59-2.54a7.375 7.375 0 0 1 1.598.037c2.564.326 4.22 1.763 5.128 4.136.363.957.588 1.951.682 2.96.276 2.851.073 5.652-.951 8.351-.53 1.393-1.242 2.677-2.477 3.592a5.69 5.69 0 0 1-3.24 1.132c-.972.029-1.931 0-2.868-.312-1.947-.639-3.327-2.373-3.472-4.405-.036-.508.08-.645.596-.682.363-.021.726-.014 1.089-.007.857.007.872.007 1.046.849.225 1.117.857 1.923 1.961 2.213 1.627.428 3.036.029 4.097-1.299.348-.435.58-.943.777-1.465.414-1.096.617-2.235.799-3.382.014-.13.036-.254-.066-.348Zm-7.859-4.767c0 .842.124 1.553.4 2.228.341.82.9 1.436 1.765 1.705 1.271.406 2.528.37 3.711-.305.8-.45 1.337-1.096 1.54-2.003.204-.899.24-1.799.117-2.728-.255-1.937-1.73-3.127-3.727-3.141-1.808-.015-3.203 1.095-3.631 2.851-.11.486-.204.987-.175 1.393Zm28.269 4.056c.051-2.445.254-4.433.973-6.341.32-.849.749-1.626 1.33-2.315 1.365-1.625 3.166-2.155 5.207-1.974 2.913.254 4.634 1.974 5.492 4.659.682 2.147.798 4.368.646 6.602-.116 1.771-.407 3.512-1.155 5.137-.879 1.901-2.222 3.309-4.365 3.664-2.956.494-5.36-.42-6.82-3.301-.625-1.226-.945-2.539-1.112-3.882-.116-.892-.24-1.777-.196-2.249Zm2.826-.297c-.066.878.072 1.741.167 2.597.116 1.038.348 2.046.835 2.982 1.358 2.649 4.59 2.286 5.847.363.516-.791.792-1.654.93-2.569.326-2.111.392-4.23.138-6.348-.124-1.031-.342-2.046-.712-3.026-.988-2.59-4.474-2.467-5.687-.827-.487.653-.792 1.379-1.003 2.155-.414 1.538-.479 3.105-.515 4.673Zm-18.355-.16c.015-2.09.24-4.151 1.039-6.11.269-.653.581-1.277 1.017-1.835 1.409-1.807 3.305-2.446 5.52-2.228 2.607.261 4.292 1.727 5.2 4.129.45 1.182.669 2.416.792 3.671a20.912 20.912 0 0 1-.298 6.058c-.225 1.147-.602 2.242-1.19 3.258-1.127 1.959-2.797 2.975-5.085 3.055-3 .109-4.94-1.538-5.941-3.904-.727-1.69-1.054-3.606-1.054-6.094Zm10.888-.167c-.058-.886-.073-1.763-.182-2.62-.152-1.175-.334-2.343-.9-3.417-.196-.37-.421-.704-.756-.965-1.387-1.059-3.842-.943-4.939.776a6.594 6.594 0 0 0-.871 2.133c-.538 2.409-.567 4.84-.247 7.278.13.987.392 1.937.864 2.83 1.278 2.438 4.358 2.162 5.644.45.385-.508.639-1.074.82-1.684.465-1.56.422-3.192.567-4.781Zm72.807-.276c-.043 1.618-.145 3.236-.559 4.811-.4 1.516-1.01 2.924-2.15 4.048-1.017.994-2.23 1.509-3.646 1.568-.603.029-1.213.043-1.809-.066-1.78-.334-3.087-1.32-3.98-2.873-.712-1.233-1.111-2.569-1.307-3.969-.392-2.786-.305-5.543.494-8.257a8.833 8.833 0 0 1 1.082-2.365c1.365-2.083 3.341-2.837 5.745-2.62 2.644.247 4.322 1.742 5.251 4.165.4 1.045.632 2.133.734 3.244.066.769.196 1.538.145 2.314Zm-10.88.805c-.058.639.065 1.553.174 2.46.124 1.038.385 2.039.857 2.975 1.264 2.496 4.453 2.278 5.767.385a5.42 5.42 0 0 0 .858-2.061c.479-2.336.515-4.695.24-7.06-.124-1.059-.342-2.097-.785-3.076-.24-.544-.581-1.002-1.097-1.314-1.46-.892-3.683-.645-4.7.958a5.99 5.99 0 0 0-.733 1.647c-.436 1.567-.574 3.178-.581 5.086Zm31.915-2.771c.305.036.523-.189.777-.305 2.92-1.349 7.22-.399 8.767 3.106.922 2.089.639 4.164-.363 6.16-1.119 2.234-3.029 3.228-5.44 3.41-1.548.116-3.037-.102-4.431-.842-1.569-.841-2.441-2.155-2.753-3.867-.123-.682 0-.827.683-.849.414-.007.821-.007 1.235 0 .581.015.61.044.777.559.617 1.886 1.656 2.655 3.639 2.677.341.007.682.007 1.017-.036.98-.124 1.794-.537 2.382-1.357.988-1.4 1.256-2.924.726-4.542-.53-1.596-1.757-2.387-3.363-2.583-1.561-.189-2.919.247-3.98 1.466-.131.145-.247.326-.458.319a31.973 31.973 0 0 1-1.663-.102c-.283-.022-.341-.239-.312-.479.058-.5.116-1.008.189-1.509.37-2.634.748-5.26 1.126-7.894.108-.784.152-.834.958-.834 2.855-.008 5.709-.008 8.564 0 .799 0 .85.065.857.885.007.384-.007.776 0 1.161 0 .362-.189.529-.538.537-.218.007-.436.014-.653.014h-6.247c-.806 0-.871.058-.988.82-.189 1.19-.37 2.387-.552 3.584-.029.16-.087.334.044.501ZM77.078 131.6h-5.665c-.218 0-.436 0-.654-.021-.29-.022-.443-.189-.421-.479.029-.363.065-.726.13-1.081.27-1.517.69-2.961 1.707-4.18.502-.602 1.105-1.081 1.736-1.523 1.272-.893 2.659-1.582 3.988-2.387a17.93 17.93 0 0 0 1.794-1.234c1.642-1.306 1.721-3.446.922-4.847-.087-.145-.167-.297-.283-.42-1.038-1.19-2.39-1.372-3.842-1.14-1.41.218-2.288 1.06-2.731 2.395-.182.558-.204 1.139-.312 1.712-.095.508-.146.559-.654.581-.509.014-1.017 0-1.525-.008-.327-.007-.494-.188-.472-.508.13-1.814.486-3.548 1.822-4.919 1.04-1.059 2.34-1.538 3.77-1.669 1.228-.109 2.47-.101 3.668.29 2.15.697 3.341 2.264 3.792 4.383.515 2.409-.335 4.368-2.252 5.877-1.242.98-2.651 1.691-4.024 2.452-.908.508-1.808 1.023-2.622 1.684-.625.515-1.133 1.124-1.467 1.864-.247.559-.167.675.457.675 2.492.007 4.983 0 7.482.007.603 0 1.213-.014 1.816.008.544.014.624.101.646.646.014.384.014.776 0 1.16-.022.581-.094.653-.697.675-.581.015-1.162.007-1.743.007h-4.366Zm33.52-9.759v8.627c0 .218-.007.436-.014.653-.007.29-.174.45-.458.457-.603.015-1.205.008-1.816 0-.319-.007-.479-.203-.493-.515a21.917 21.917 0 0 1-.015-.725v-11.312c0-.196.007-.385 0-.58-.022-.683-.065-.733-.763-.741-.995-.007-1.983 0-2.978-.007-.726-.007-.799-.072-.799-.783-.007-1.161-.094-1.234 1.126-1.357.625-.066 1.235-.225 1.845-.392.864-.247 1.416-.805 1.772-1.589.088-.196.146-.414.233-.61.145-.319.101-.798.486-.921.509-.16 1.054-.102 1.584-.022.196.029.254.211.269.385.014.217.014.435.014.653.007 2.931.007 5.855.007 8.779Zm-54.468-.036v8.627c0 .167.008.341 0 .508-.028.544-.094.631-.638.653-.487.022-.966.022-1.453 0-.56-.022-.654-.124-.683-.704-.014-.218-.007-.435-.007-.653v-11.312c0-.196.007-.384-.007-.58-.03-.544-.095-.617-.654-.631-.922-.015-1.838-.008-2.76-.008-.196 0-.385-.007-.581-.007-.349 0-.508-.167-.545-.522-.138-1.292-.058-1.408 1.235-1.626a12.373 12.373 0 0 0 1.837-.42c.792-.247 1.337-.762 1.657-1.517.16-.377.297-.769.42-1.161.102-.319.291-.486.633-.479.363.008.726 0 1.09.008.29.007.442.167.45.457.007.217.014.435.014.653-.007 2.917-.007 5.812-.007 8.714Zm11.608 8.271v1.016c0 .327-.175.494-.487.501a90.9 90.9 0 0 1-1.954 0c-.305-.007-.508-.153-.508-.486v-2.17c0-.326.174-.493.486-.5.654-.008 1.3-.008 1.954 0 .356 0 .516.203.509.558 0 .356.007.719 0 1.081.007 0 .007 0 0 0Zm-2.949-11.551v-1.081c0-.29.167-.457.443-.464a36.99 36.99 0 0 1 2.026.007c.313.007.48.203.48.515 0 .726 0 1.444-.008 2.17 0 .29-.167.45-.45.457-.675.007-1.351.007-2.026 0-.327-.007-.473-.203-.473-.515.008-.363.008-.726.008-1.089Z"/>
  </g>
  <defs>
    <clipPath id="a">
      <path fill="#fff" d="M0 0h131.531v131.531H0z" transform="translate(0 .563)"/>
    </clipPath>
  </defs>
</svg>
