<svg xmlns="http://www.w3.org/2000/svg" width="187" height="61" fill="none" viewBox="0 0 187 61">
  <g clip-path="url(#a)">
    <path fill="#fff" d="M27.133 41.398c-2.273 0-4.253-.585-5.94-1.755-1.686-1.17-2.786-2.487-3.3-4.096l4.474-1.317c.293.951.953 1.683 1.833 2.268.88.585 1.907.877 3.153.877.954 0 1.687-.146 2.274-.585.586-.365.88-.804.88-1.39 0-.804-.66-1.462-2.127-1.828l-4.84-1.39c-3.153-.877-4.693-2.56-4.693-5.047 0-1.536.733-2.925 2.2-4.022 1.466-1.097 3.3-1.683 5.353-1.683 1.98 0 3.74.44 5.28 1.317 1.54.878 2.567 2.048 3.153 3.438l-4.4 1.243c-.806-1.463-2.2-2.194-4.033-2.194-.733 0-1.393.146-1.907.512-.513.366-.806.731-.806 1.17 0 .658.513 1.17 1.54 1.463l4.693 1.316c1.687.512 3.007 1.098 3.96 1.902.953.731 1.393 1.902 1.393 3.438 0 1.755-.733 3.291-2.273 4.461-1.467 1.317-3.373 1.902-5.867 1.902Zm20.9 0c-3.08 0-5.5-.878-7.406-2.706-1.907-1.829-2.86-4.242-2.86-7.241 0-2.853.88-5.266 2.713-7.168 1.833-1.902 4.253-2.853 7.187-2.853 3.006 0 5.426.878 7.186 2.78 1.76 1.901 2.64 4.169 2.64 6.948 0 .732 0 1.317-.073 1.756H42.68c.147 1.316.733 2.34 1.613 3.145.954.804 2.2 1.17 3.887 1.17 2.2 0 3.74-.804 4.62-2.487l4.473 1.317c-.586 1.39-1.686 2.706-3.3 3.73-1.613 1.024-3.593 1.61-5.94 1.61Zm4.62-11.556a4.777 4.777 0 0 0-1.54-3c-.88-.804-2.053-1.17-3.446-1.17-1.394 0-2.494.44-3.447 1.244-.88.805-1.467 1.829-1.613 2.926h10.046Zm16.794 11.556c-2.64 0-4.84-.95-6.674-2.852-1.833-1.902-2.713-4.316-2.713-7.095 0-2.853.88-5.266 2.713-7.168 1.834-1.902 4.034-2.853 6.674-2.853 2.566 0 4.62.951 6.086 2.78v-2.268h4.987v18.87h-4.987v-2.34c-1.466 1.975-3.52 2.926-6.086 2.926Zm.806-4.388c1.54 0 2.787-.512 3.814-1.61 1.026-1.023 1.54-2.413 1.54-4.022 0-1.61-.514-2.926-1.54-3.95-1.027-1.024-2.347-1.536-3.814-1.536-1.54 0-2.86.512-3.813 1.536-1.027 1.024-1.467 2.34-1.467 4.023 0 1.609.514 2.999 1.467 4.023 1.027 1.024 2.273 1.536 3.813 1.536Zm37.767-15.58c2.273 0 4.107.732 5.5 2.122 1.393 1.39 2.053 3.437 2.053 6.07v11.264h-4.986v-10.24c0-3.072-1.174-4.608-3.594-4.608-1.32 0-2.273.44-3.006 1.39-.66.878-1.027 2.194-1.027 3.877v9.654h-4.987V30.72c0-3.072-1.173-4.608-3.52-4.608-1.32 0-2.346.44-3.006 1.39-.66.951-1.027 2.268-1.027 3.95v9.508h-4.913V22.016h4.913v2.267c1.393-1.829 3.3-2.78 5.647-2.78 2.566 0 4.473.951 5.72 2.853 1.32-1.975 3.52-2.926 6.233-2.926Zm12.173-7.826h4.914v27.282h-4.914V13.604Zm18.92 27.794c-3.08 0-5.5-.878-7.406-2.706-1.907-1.829-2.86-4.242-2.86-7.241 0-2.853.88-5.266 2.713-7.168 1.833-1.902 4.253-2.853 7.187-2.853 3.006 0 5.426.878 7.186 2.78 1.76 1.828 2.64 4.169 2.64 6.948 0 .732 0 1.317-.073 1.756h-14.74c.147 1.316.733 2.34 1.613 3.145.954.804 2.2 1.17 3.887 1.17 2.2 0 3.74-.804 4.62-2.487l4.473 1.317c-.586 1.39-1.686 2.706-3.3 3.73-1.613 1.024-3.593 1.61-5.94 1.61Zm4.547-11.556a4.779 4.779 0 0 0-1.54-3c-.88-.804-2.053-1.17-3.447-1.17-1.393 0-2.493.44-3.446 1.244-.88.805-1.467 1.829-1.614 2.926h10.047Zm16.06 11.556c-2.273 0-4.253-.585-5.94-1.755-1.687-1.17-2.787-2.487-3.3-4.096l4.473-1.317c.294.951.954 1.683 1.834 2.268.88.585 1.906.877 3.153.877.953 0 1.687-.146 2.273-.585.587-.439.88-.804.88-1.39 0-.804-.66-1.462-2.126-1.828l-4.84-1.39c-3.154-.877-4.694-2.56-4.694-5.047 0-1.536.734-2.925 2.2-4.022 1.467-1.097 3.3-1.683 5.354-1.683 1.98 0 3.74.44 5.28 1.317 1.54.878 2.566 2.048 3.153 3.438l-4.4 1.243c-.807-1.463-2.2-2.194-4.033-2.194-.734 0-1.394.146-1.907.512-.513.366-.807.731-.807 1.17 0 .658.514 1.17 1.54 1.463l4.694 1.316c1.686.512 3.006 1.098 3.96 1.902.953.805 1.393 1.902 1.393 3.438 0 1.755-.733 3.291-2.273 4.461-1.467 1.317-3.447 1.902-5.867 1.902Zm19.067 0c-2.274 0-4.254-.585-5.94-1.755-1.687-1.17-2.787-2.487-3.3-4.096l4.473-1.317c.293.951.953 1.683 1.833 2.268.88.585 1.907.877 3.154.877.953 0 1.686-.146 2.273-.585.587-.365.88-.804.88-1.39 0-.804-.66-1.462-2.127-1.828l-4.84-1.39c-3.153-.877-4.693-2.56-4.693-5.047 0-1.536.733-2.925 2.2-4.022 1.467-1.097 3.3-1.683 5.353-1.683 1.98 0 3.74.44 5.28 1.317 1.54.878 2.567 2.048 3.154 3.438l-4.4 1.243c-.807-1.463-2.2-2.194-4.034-2.194-.733 0-1.393.146-1.906.512-.514.366-.807.731-.807 1.17 0 .658.513 1.17 1.54 1.463l4.693 1.316c1.687.512 3.007 1.098 3.96 1.902.954.805 1.394 1.902 1.394 3.438 0 1.755-.734 3.291-2.274 4.461-1.466 1.317-3.446 1.902-5.866 1.902Z"/>
    <path fill="url(#b)" d="M37.84 52.589a38.647 38.647 0 0 1-3.08 8.118c10.12-1.39 18.627-7.68 23.1-16.456h-8.507a23.554 23.554 0 0 1-11.513 8.338Z"/>
    <path fill="url(#c)" d="M27.353 7.46a23.126 23.126 0 0 1 3.227-.219c7.407 0 14.08 3.51 18.333 8.923.587.732 1.174 1.536 1.614 2.414h8.14v-.073C53.973 7.68 43.12 0 30.58 0c-4.18 0-8.14.805-11.807 2.34-3.08 1.317-6.013 3.072-8.506 5.34 2.86.658 5.573 1.682 8.14 2.925 2.713-1.609 5.72-2.706 8.946-3.145Z"/>
    <path fill="url(#d)" d="M30.58 53.759c-2.493 0-4.987-.439-7.26-1.17-8.653-2.78-15.107-10.533-15.987-19.895-.073-.731-.073-1.463-.073-2.194 0-8.411 4.473-15.799 11.22-19.895-2.567-1.243-5.28-2.267-8.213-2.925C3.96 13.312 0 21.43 0 30.5c0 3.291.513 6.51 1.54 9.508 3.153 9.509 10.927 16.97 20.607 19.749 2.64.731 5.5 1.17 8.433 1.17 1.393 0 2.787-.073 4.18-.293 1.32-2.56 2.42-5.266 3.08-8.118a21.938 21.938 0 0 1-7.26 1.243Z"/>
  </g>
  <defs>
    <linearGradient id="b" x1="34.712" x2="57.815" y1="52.478" y2="52.478" gradientUnits="userSpaceOnUse">
      <stop stop-color="#FF4C39"/>
      <stop offset="1" stop-color="#FC1048"/>
    </linearGradient>
    <linearGradient id="c" x1="64.002" x2="5.522" y1="20.47" y2="-3.631" gradientUnits="userSpaceOnUse">
      <stop stop-color="#FF4C39"/>
      <stop offset="1" stop-color="#FC1048"/>
    </linearGradient>
    <linearGradient id="d" x1="8.065" x2="23.118" y1="6.32" y2="58.457" gradientUnits="userSpaceOnUse">
      <stop stop-color="#FF4C39"/>
      <stop offset="1" stop-color="#FC1048"/>
    </linearGradient>
    <clipPath id="a">
      <path fill="#fff" d="M0 0h187v61H0z"/>
    </clipPath>
  </defs>
</svg>
