<svg xmlns="http://www.w3.org/2000/svg" width="25" height="26" fill="none" viewBox="0 0 25 26">
  <path fill="#fff" fill-rule="evenodd" d="M21.357 3.974a12.37 12.37 0 0 0-4.036-2.695 12.418 12.418 0 0 0-4.768-.938C5.692.34.107 5.898.104 12.729c0 2.183.573 4.314 1.661 6.193L0 25.341l6.599-1.724a12.5 12.5 0 0 0 5.948 1.508h.006c6.86 0 12.444-5.557 12.447-12.388a12.268 12.268 0 0 0-.94-4.744 12.316 12.316 0 0 0-2.703-4.019Zm-8.804 19.06h-.005a10.348 10.348 0 0 1-5.266-1.436l-.377-.223-3.916 1.022 1.045-3.799-.246-.389a10.243 10.243 0 0 1-1.582-5.48C2.209 7.052 6.85 2.433 12.556 2.433a10.33 10.33 0 0 1 3.962.78 10.281 10.281 0 0 1 3.353 2.24 10.199 10.199 0 0 1 3.027 7.285c-.003 5.677-4.644 10.297-10.345 10.297Zm5.675-7.712c-.312-.156-1.84-.904-2.126-1.007-.284-.104-.49-.155-.699.154-.208.31-.804 1.006-.985 1.213-.182.207-.364.232-.674.077-.31-.154-1.313-.481-2.502-1.536-.925-.82-1.548-1.834-1.73-2.144-.182-.31-.02-.478.137-.632.14-.138.31-.362.466-.542.155-.181.207-.31.31-.516.105-.207.053-.388-.026-.543-.077-.156-.7-1.68-.96-2.299-.25-.6-.507-.52-.698-.528a13.437 13.437 0 0 0-.595-.011 1.15 1.15 0 0 0-.83.386c-.286.31-1.089 1.058-1.089 2.582 0 1.523 1.115 2.996 1.27 3.203.156.207 2.194 3.333 5.314 4.674.743.319 1.322.51 1.773.653.745.236 1.423.201 1.96.122.597-.088 1.84-.747 2.098-1.47.26-.724.26-1.343.182-1.473-.078-.13-.287-.208-.596-.363Z" clip-rule="evenodd"/>
</svg>
